<svg width="48" height="48" viewBox="0 0 48 48" fill="none" xmlns="http://www.w3.org/2000/svg">
<path fill-rule="evenodd" clip-rule="evenodd" d="M39.9546 8.90087C39.9546 9.39297 39.7591 9.86492 39.4112 10.2129L37.4881 12.136C37.3159 12.3082 37.1115 12.4449 36.8865 12.5382C36.6615 12.6315 36.4203 12.6796 36.1767 12.6797C35.9331 12.6798 35.6919 12.6319 35.4669 12.5387C35.2418 12.4456 35.0373 12.3091 34.865 12.1369C34.6927 11.9647 34.556 11.7603 34.4627 11.5353C34.3694 11.3103 34.3213 11.0691 34.3212 10.8255C34.3212 10.5819 34.3691 10.3407 34.4622 10.1157C34.5553 9.89058 34.6919 9.68606 34.8641 9.51377L36.7871 7.58885C37.1351 7.24088 37.607 7.04539 38.0991 7.04539C38.5912 7.04539 39.0632 7.24088 39.4112 7.58885C39.7591 7.93682 39.9546 8.40877 39.9546 8.90087ZM12.5378 36.8843C12.4447 37.1094 12.3081 37.3139 12.136 37.4862L10.2129 39.4112C9.86492 39.7591 9.39297 39.9546 8.90087 39.9546C8.40877 39.9546 7.93682 39.7591 7.58885 39.4112C7.24088 39.0632 7.04539 38.5912 7.04539 38.0991C7.04539 37.607 7.24088 37.1351 7.58885 36.7871L9.51191 34.8641C9.68409 34.6918 9.88851 34.5551 10.1135 34.4618C10.3385 34.3685 10.5797 34.3204 10.8233 34.3203C11.0669 34.3202 11.3081 34.3681 11.5331 34.4613C11.7582 34.5544 11.9627 34.691 12.135 34.8631C12.3073 35.0353 12.444 35.2397 12.5373 35.4647C12.6306 35.6897 12.6787 35.9309 12.6788 36.1745C12.6788 36.4181 12.6309 36.6593 12.5378 36.8843ZM22.1887 45.4568C21.8409 45.1091 21.6456 44.6374 21.6456 44.1456V41.4269C21.6456 40.9351 21.8409 40.4634 22.1887 40.1156C22.5365 39.7679 23.0082 39.5725 23.5 39.5725C23.9918 39.5725 24.4635 39.7679 24.8113 40.1156C25.1591 40.4634 25.3544 40.9351 25.3544 41.4269V44.1456C25.3544 44.6374 25.1591 45.1091 24.8113 45.4568C24.4635 45.8046 23.9918 46 23.5 46C23.0082 46 22.5365 45.8046 22.1887 45.4568ZM22.1887 6.88436C21.8409 6.53658 21.6456 6.0649 21.6456 5.57307V2.85445C21.6456 2.36262 21.8409 1.89093 22.1887 1.54316C22.5365 1.19538 23.0082 1 23.5 1C23.9918 1 24.4635 1.19538 24.8113 1.54316C25.1591 1.89093 25.3544 2.36262 25.3544 2.85445V5.57307C25.3544 6.0649 25.1591 6.53658 24.8113 6.88436C24.4635 7.23213 23.9918 7.42751 23.5 7.42751C23.0082 7.42751 22.5365 7.23213 22.1887 6.88436ZM45.4568 24.8113C45.8046 24.4635 46 23.9918 46 23.5C46 23.0082 45.8046 22.5365 45.4568 22.1887C45.1091 21.8409 44.6374 21.6456 44.1456 21.6456H41.4269C40.9351 21.6456 40.4634 21.8409 40.1156 22.1887C39.7679 22.5365 39.5725 23.0082 39.5725 23.5C39.5725 23.9918 39.7679 24.4635 40.1156 24.8113C40.4634 25.1591 40.9351 25.3544 41.4269 25.3544H44.1456C44.6374 25.3544 45.1091 25.1591 45.4568 24.8113ZM6.88436 24.8113C7.23213 24.4635 7.42751 23.9918 7.42751 23.5C7.42751 23.0082 7.23213 22.5365 6.88436 22.1887C6.53658 21.8409 6.0649 21.6456 5.57307 21.6456H2.85445C2.36262 21.6456 1.89093 21.8409 1.54316 22.1887C1.19538 22.5365 1 23.0082 1 23.5C1 23.9918 1.19538 24.4635 1.54316 24.8113C1.89093 25.1591 2.36262 25.3544 2.85445 25.3544H5.57307C6.0649 25.3544 6.53658 25.1591 6.88436 24.8113ZM37.3891 39.8134C37.164 39.7201 36.9594 39.5835 36.7871 39.4112L34.8641 37.4881C34.6918 37.3158 34.5551 37.1113 34.4618 36.8861C34.3686 36.661 34.3206 36.4197 34.3206 36.1761C34.3206 35.9324 34.3686 35.6911 34.4618 35.466C34.5551 35.2409 34.6918 35.0364 34.8641 34.8641C35.0364 34.6918 35.2409 34.5551 35.466 34.4618C35.6911 34.3686 35.9324 34.3206 36.1761 34.3206C36.4197 34.3206 36.661 34.3686 36.8861 34.4618C37.1113 34.5551 37.3158 34.6918 37.4881 34.8641L39.4112 36.7871C39.5835 36.9594 39.7201 37.164 39.8134 37.3891C39.9066 37.6142 39.9546 37.8555 39.9546 38.0991C39.9546 38.3428 39.9066 38.5841 39.8134 38.8092C39.7201 39.0343 39.5835 39.2389 39.4112 39.4112C39.2389 39.5835 39.0343 39.7201 38.8092 39.8134C38.5841 39.9066 38.3428 39.9546 38.0991 39.9546C37.8555 39.9546 37.6142 39.9066 37.3891 39.8134ZM10.1157 12.5515C9.88946 12.4543 9.68483 12.3131 9.51377 12.136L7.58885 10.2129C7.24113 9.86492 7.04587 9.39307 7.04605 8.90114C7.04622 8.40921 7.24181 7.9375 7.58978 7.58978C7.93775 7.24205 8.4096 7.0468 8.90153 7.04698C9.39346 7.04715 9.86517 7.24273 10.2129 7.5907L12.136 9.51377C12.3131 9.68483 12.4543 9.88946 12.5515 10.1157C12.6487 10.342 12.6999 10.5853 12.702 10.8315C12.7042 11.0778 12.6572 11.322 12.564 11.5499C12.4708 11.7778 12.3331 11.9848 12.1589 12.1589C11.9848 12.3331 11.7778 12.4708 11.5499 12.564C11.322 12.6572 11.0778 12.7042 10.8315 12.702C10.5853 12.6999 10.342 12.6487 10.1157 12.5515ZM32.7722 23.5C32.7722 28.6209 28.6209 32.7722 23.5 32.7722C18.3791 32.7722 14.2278 28.6209 14.2278 23.5C14.2278 18.3791 18.3791 14.2278 23.5 14.2278C28.6209 14.2278 32.7722 18.3791 32.7722 23.5Z" fill="#1B1B1B"/>
</svg>
